<svg role="img" viewBox="0 0 24 24" xmlns="http://www.w3.org/2000/svg" id="Mapbox--Streamline-Simple-Icons" height="24" width="24">
  <desc>
    Mapbox Streamline Icon: https://streamlinehq.com
  </desc>
  <title>Mapbox</title>
  <path d="M12 0C5.372 0 0 5.372 0 12s5.372 12 12 12 12 -5.372 12 -12S18.628 0 12 0zm5.696 14.943c-4.103 4.103 -11.433 2.794 -11.433 2.794S4.94 10.421 9.057 6.304c2.281 -2.281 6.061 -2.187 8.45 0.189s2.471 6.168 0.189 8.45zm-4.319 -7.91 -1.174 2.416 -2.416 1.174 2.416 1.174 1.174 2.416 1.174 -2.416 2.416 -1.174 -2.416 -1.174 -1.174 -2.416z" fill="#000000" stroke-width="1"></path>
</svg>